<?xml version="1.0" encoding="UTF-8" standalone="no"?><!DOCTYPE svg PUBLIC "-//W3C//DTD SVG 1.1//EN" "http://www.w3.org/Graphics/SVG/1.1/DTD/svg11.dtd"><svg width="100%" height="100%" viewBox="0 0 75 23" version="1.1" xmlns="http://www.w3.org/2000/svg" xmlns:xlink="http://www.w3.org/1999/xlink" xml:space="preserve" xmlns:serif="http://www.serif.com/" style="fill-rule:evenodd;clip-rule:evenodd;stroke-linejoin:round;stroke-miterlimit:1.41421;"><g><path d="M0.195,10.379c0,-2.719 1.081,-5.328 3.004,-7.251c1.923,-1.923 4.531,-3.003 7.251,-3.003c0.016,0 0.032,0 0.049,0c2.719,0 5.328,1.08 7.251,3.003c1.923,1.923 3.003,4.532 3.003,7.251c0,3.305 0,6.691 0,8.937c0,1.449 -1.175,2.623 -2.623,2.623c-0.386,0 -0.764,0 -1.093,0c-0.592,0 -1.073,-0.478 -1.075,-1.07c-0.01,-2.005 -0.03,-6.475 -0.048,-10.394c-0.008,-1.713 -0.799,-3.329 -2.149,-4.385c-1.349,-1.057 -3.499,-1.463 -5.188,-0.933c-1.916,0.601 -2.998,1.829 -3.249,3.572c0,0 0,0 0,0c-0.023,0.162 0.029,0.327 0.142,0.447c0.113,0.119 0.274,0.181 0.438,0.167c0.594,-0.051 1.502,-0.13 2.422,-0.209c0.851,-0.074 1.696,0.208 2.333,0.778c0.636,0.57 1.01,1.378 1.031,2.233c0.011,0.465 0.022,0.905 0.03,1.26c0.006,0.213 -0.078,0.419 -0.231,0.567c-0.152,0.149 -0.36,0.228 -0.573,0.217c-0.36,-0.018 -0.814,-0.04 -1.31,-0.065c-1.223,-0.06 -2.417,0.387 -3.3,1.236c-0.883,0.849 -1.376,2.025 -1.363,3.25c0.009,0.84 0.017,1.638 0.023,2.242c0.003,0.288 -0.109,0.564 -0.311,0.768c-0.202,0.204 -0.477,0.319 -0.764,0.319c-0.325,0 -0.697,0 -1.076,0c-1.449,0 -2.624,-1.174 -2.624,-2.623c0,-2.246 0,-5.632 0,-8.937Z" style="fill:#ce4900;"/><g transform="matrix(0.19118,0,0,0.19118,-237.25,-172.042)"><text x="1376.95px" y="967.68px" style="font-family:'FuturaPT-Bold', 'Futura PT', sans-serif;font-weight:700;font-size:50px;fill:#1a1a1a;">adrian</text><text x="1376.95px" y="1013.9px" style="font-family:'FuturaPT-Bold', 'Futura PT', sans-serif;font-weight:700;font-size:50px;fill:#1a1a1a;">aleix<tspan x="1494.9px " y="1013.9px ">a</tspan>ndre</text></g></g></svg>