<?xml version="1.0" encoding="UTF-8" standalone="no"?><!DOCTYPE svg PUBLIC "-//W3C//DTD SVG 1.1//EN" "http://www.w3.org/Graphics/SVG/1.1/DTD/svg11.dtd"><svg width="100%" height="100%" viewBox="0 0 75 23" version="1.1" xmlns="http://www.w3.org/2000/svg" xmlns:xlink="http://www.w3.org/1999/xlink" xml:space="preserve" xmlns:serif="http://www.serif.com/" style="fill-rule:evenodd;clip-rule:evenodd;stroke-linejoin:round;stroke-miterlimit:1.41421;"><g><path d="M0.195,10.379c0,-2.719 1.081,-5.328 3.004,-7.251c1.923,-1.923 4.531,-3.003 7.251,-3.003c0.016,0 0.032,0 0.049,0c2.719,0 5.328,1.08 7.251,3.003c1.923,1.923 3.003,4.532 3.003,7.251c0,3.305 0,6.691 0,8.937c0,1.449 -1.175,2.623 -2.623,2.623c-0.386,0 -0.764,0 -1.093,0c-0.592,0 -1.073,-0.478 -1.075,-1.07c-0.01,-2.005 -0.03,-6.475 -0.048,-10.394c-0.008,-1.713 -0.799,-3.329 -2.149,-4.385c-1.349,-1.057 -3.499,-1.463 -5.188,-0.933c-1.916,0.601 -2.998,1.829 -3.249,3.572c0,0 0,0 0,0c-0.023,0.162 0.029,0.327 0.142,0.447c0.113,0.119 0.274,0.181 0.438,0.167c0.594,-0.051 1.502,-0.13 2.422,-0.209c0.851,-0.074 1.696,0.208 2.333,0.778c0.636,0.57 1.01,1.378 1.031,2.233c0.011,0.465 0.022,0.905 0.03,1.26c0.006,0.213 -0.078,0.419 -0.231,0.567c-0.152,0.149 -0.36,0.228 -0.573,0.217c-0.36,-0.018 -0.814,-0.04 -1.31,-0.065c-1.223,-0.06 -2.417,0.387 -3.3,1.236c-0.883,0.849 -1.376,2.025 -1.363,3.25c0.009,0.84 0.017,1.638 0.023,2.242c0.003,0.288 -0.109,0.564 -0.311,0.768c-0.202,0.204 -0.477,0.319 -0.764,0.319c-0.325,0 -0.697,0 -1.076,0c-1.449,0 -2.624,-1.174 -2.624,-2.623c0,-2.246 0,-5.632 0,-8.937Z" style="fill:#ce4900;"/><g transform="matrix(0.19118,0,0,0.19118,-237.25,-172.042)"><path d="M1397.01,947.48c-0.95,-1.049 -3.102,-2.897 -6.704,-2.897c-3.202,0 -6.15,1.249 -8.049,3.147c-1.798,1.798 -3.447,4.747 -3.447,8.95c0,3.352 1.049,5.902 3.198,8.2c2.698,2.847 5.646,3.547 8.048,3.547c2.201,0 5.103,-0.65 6.954,-3.198l0,2.448l7.994,0l0,-22.344l-7.994,0l0,2.147Zm-4.903,3.897c1.701,0 2.852,0.75 3.602,1.45c1.251,1.201 1.551,2.602 1.551,3.653c0,1.801 -0.8,2.901 -1.501,3.602c-1,1 -2.301,1.551 -3.602,1.551c-1.351,0 -2.752,-0.701 -3.602,-1.501c-1.001,-0.951 -1.551,-2.352 -1.551,-3.652c0,-1.151 0.5,-2.602 1.601,-3.653c1.151,-1.1 2.501,-1.45 3.502,-1.45Z" style="fill:#1a1a1a;fill-rule:nonzero;"/><path d="M1435.8,931.233l-7.994,0l0,16.247c-1.451,-1.548 -3.602,-2.897 -6.654,-2.897c-2.752,0 -5.7,0.899 -7.899,2.997c-2.048,1.948 -3.647,5.047 -3.647,8.85c0,3.552 1.349,6.701 3.597,8.899c2.099,2.049 4.647,3.098 7.849,3.098c1.551,0 4.503,-0.3 6.754,-3.198l0,2.448l7.994,0l0,-36.444Zm-12.897,30.4c-1.151,0 -2.451,-0.4 -3.552,-1.501c-1.051,-1.051 -1.551,-2.352 -1.551,-3.502c0,-1.501 0.65,-2.902 1.551,-3.803c0.7,-0.7 1.851,-1.45 3.552,-1.45c1.501,0 2.752,0.55 3.652,1.5c0.801,0.851 1.501,2.352 1.501,3.603c0,1.35 -0.65,2.851 -1.701,3.802c-0.85,0.75 -2.151,1.351 -3.452,1.351Z" style="fill:#1a1a1a;fill-rule:nonzero;"/><path d="M1441.31,967.677l7.994,0l0,-9.55c0,-1.2 0.1,-3.55 1.8,-5.1c1.15,-1.05 2.6,-1.2 3.65,-1.2c1.95,0 3.05,0.6 3.45,0.8l0,-7.544c-1.05,-0.05 -1.4,-0.1 -1.6,-0.1c-1.5,0 -2.95,0.25 -4.15,0.899c-1.2,0.599 -2.35,1.599 -3.15,3.097l0,-3.646l-7.994,0l0,22.344Z" style="fill:#1a1a1a;fill-rule:nonzero;"/><path d="M1461.76,945.333l0,22.344l7.994,0l0,-22.344l-7.994,0Zm-0.5,-9.303c0,2.498 1.999,4.497 4.497,4.497c2.498,0 4.497,-1.999 4.497,-4.497c0,-2.499 -1.999,-4.497 -4.497,-4.497c-2.498,0 -4.497,1.998 -4.497,4.497Z" style="fill:#1a1a1a;fill-rule:nonzero;"/><path d="M1492.51,947.48c-0.95,-1.049 -3.102,-2.897 -6.704,-2.897c-3.202,0 -6.15,1.249 -8.049,3.147c-1.798,1.798 -3.447,4.747 -3.447,8.95c0,3.352 1.049,5.902 3.198,8.2c2.698,2.847 5.646,3.547 8.048,3.547c2.201,0 5.103,-0.65 6.954,-3.198l0,2.448l7.994,0l0,-22.344l-7.994,0l0,2.147Zm-4.903,3.897c1.701,0 2.852,0.75 3.602,1.45c1.251,1.201 1.551,2.602 1.551,3.653c0,1.801 -0.8,2.901 -1.501,3.602c-1,1 -2.301,1.551 -3.602,1.551c-1.351,0 -2.752,-0.701 -3.602,-1.501c-1.001,-0.951 -1.551,-2.352 -1.551,-3.652c0,-1.151 0.5,-2.602 1.601,-3.653c1.151,-1.1 2.501,-1.45 3.502,-1.45Z" style="fill:#1a1a1a;fill-rule:nonzero;"/><path d="M1506.01,967.677l7.994,0l0,-12c0,-1.35 0.5,-2.8 1.301,-3.55c0.65,-0.6 1.701,-1.05 2.952,-1.05c0.801,0 1.802,0.15 2.552,0.95c1.051,1.1 1.001,3.05 1.001,4.35l0,11.3l7.994,0l0,-14.2c0,-2.45 -0.2,-4.348 -2.098,-6.247c-1.849,-1.848 -4.297,-2.397 -6.596,-2.397c-1.952,0 -4.904,0.399 -7.106,3.297l0,-2.797l-7.994,0l0,22.344Z" style="fill:#1a1a1a;fill-rule:nonzero;"/><path d="M1397.01,993.706c-0.95,-1.049 -3.102,-2.898 -6.704,-2.898c-3.202,0 -6.15,1.249 -8.049,3.148c-1.798,1.798 -3.447,4.747 -3.447,8.949c0,3.352 1.049,5.903 3.198,8.2c2.698,2.848 5.646,3.547 8.048,3.547c2.201,0 5.103,-0.649 6.954,-3.197l0,2.447l7.994,0l0,-22.344l-7.994,0l0,2.148Zm-4.903,3.896c1.701,0 2.852,0.751 3.602,1.451c1.251,1.201 1.551,2.602 1.551,3.652c0,1.801 -0.8,2.902 -1.501,3.603c-1,1 -2.301,1.55 -3.602,1.55c-1.351,0 -2.752,-0.7 -3.602,-1.5c-1.001,-0.951 -1.551,-2.352 -1.551,-3.653c0,-1.15 0.5,-2.601 1.601,-3.652c1.151,-1.101 2.501,-1.451 3.502,-1.451Z" style="fill:#1a1a1a;fill-rule:nonzero;"/><rect x="1410.51" y="977.458" width="7.994" height="36.444" style="fill:#1a1a1a;fill-rule:nonzero;"/><path d="M1447.65,1003.35c0,-2.496 -0.4,-6.399 -3.547,-9.398c-2.648,-2.497 -5.998,-3.047 -8.6,-3.047c-4.403,0 -7.301,1.449 -9.15,3.246c-1.948,1.898 -3.347,4.904 -3.347,8.65c0,4.254 1.849,7.002 3.298,8.451c2.747,2.748 6.297,3.397 9.249,3.397c4.853,0 7.451,-1.499 9.099,-3.097c1.649,-1.599 2.348,-3.348 2.698,-4.597l-7.644,0c-0.351,0.7 -0.901,1.199 -1.401,1.499c-1.001,0.55 -2.402,0.6 -2.602,0.6c-1.801,0 -2.802,-0.6 -3.302,-1.099c-0.951,-0.95 -1.401,-2.553 -1.401,-3.756l16.65,0l0,-0.849Zm-16.4,-3.745c0.15,-1.001 0.65,-1.803 1.201,-2.404c0.85,-0.851 1.901,-1.202 3.252,-1.202c0.801,0 2.252,0.15 3.302,1.202c0.601,0.601 1.101,1.553 1.301,2.404l-9.056,0Z" style="fill:#1a1a1a;fill-rule:nonzero;"/><path d="M1452.26,991.558l0,22.344l7.994,0l0,-22.344l-7.994,0Zm-0.5,-9.303c0,2.499 1.999,4.497 4.497,4.497c2.498,0 4.497,-1.998 4.497,-4.497c0,-2.498 -1.999,-4.497 -4.497,-4.497c-2.498,0 -4.497,1.999 -4.497,4.497Z" style="fill:#1a1a1a;fill-rule:nonzero;"/><path d="M1462.96,1013.9l10.6,0l5.697,-6.648l5.697,6.648l10.6,0l-11.2,-12.146l9.25,-10.198l-10.35,0l-3.947,4.599l-3.847,-4.599l-10.4,0l9.05,10.198l-11.15,12.146Z" style="fill:#1a1a1a;fill-rule:nonzero;"/><path d="M1514.96,993.706c-0.95,-1.049 -3.102,-2.898 -6.704,-2.898c-3.202,0 -6.15,1.249 -8.049,3.148c-1.798,1.798 -3.447,4.747 -3.447,8.949c0,3.352 1.049,5.903 3.198,8.2c2.698,2.848 5.646,3.547 8.048,3.547c2.201,0 5.103,-0.649 6.954,-3.197l0,2.447l7.994,0l0,-22.344l-7.994,0l0,2.148Zm-4.903,3.896c1.701,0 2.852,0.751 3.602,1.451c1.251,1.201 1.551,2.602 1.551,3.652c0,1.801 -0.8,2.902 -1.501,3.603c-1,1 -2.301,1.55 -3.602,1.55c-1.351,0 -2.752,-0.7 -3.602,-1.5c-1.001,-0.951 -1.551,-2.352 -1.551,-3.653c0,-1.15 0.5,-2.601 1.601,-3.652c1.151,-1.101 2.501,-1.451 3.502,-1.451Z" style="fill:#1a1a1a;fill-rule:nonzero;"/><path d="M1528.46,1013.9l7.994,0l0,-12c0,-1.35 0.5,-2.8 1.301,-3.55c0.65,-0.6 1.701,-1.05 2.952,-1.05c0.801,0 1.802,0.15 2.552,0.95c1.051,1.1 1.001,3.05 1.001,4.35l0,11.3l7.994,0l0,-14.2c0,-2.45 -0.2,-4.348 -2.098,-6.246c-1.849,-1.848 -4.297,-2.398 -6.596,-2.398c-1.952,0 -4.904,0.4 -7.106,3.297l0,-2.797l-7.994,0l0,22.344Z" style="fill:#1a1a1a;fill-rule:nonzero;"/><path d="M1583,977.458l-7.994,0l0,16.248c-1.451,-1.549 -3.602,-2.898 -6.654,-2.898c-2.752,0 -5.7,0.9 -7.899,2.998c-2.048,1.948 -3.647,5.047 -3.647,8.849c0,3.552 1.349,6.702 3.597,8.9c2.099,2.048 4.647,3.097 7.849,3.097c1.551,0 4.503,-0.3 6.754,-3.197l0,2.447l7.994,0l0,-36.444Zm-12.897,30.4c-1.151,0 -2.451,-0.4 -3.552,-1.5c-1.051,-1.051 -1.551,-2.352 -1.551,-3.503c0,-1.501 0.65,-2.901 1.551,-3.802c0.7,-0.7 1.851,-1.451 3.552,-1.451c1.501,0 2.752,0.551 3.652,1.501c0.801,0.851 1.501,2.352 1.501,3.602c0,1.351 -0.65,2.852 -1.701,3.803c-0.85,0.75 -2.151,1.35 -3.452,1.35Z" style="fill:#1a1a1a;fill-rule:nonzero;"/><path d="M1588.51,1013.9l7.994,0l0,-9.55c0,-1.2 0.1,-3.55 1.8,-5.1c1.15,-1.05 2.6,-1.2 3.65,-1.2c1.95,0 3.05,0.6 3.45,0.8l0,-7.544c-1.05,-0.05 -1.4,-0.1 -1.6,-0.1c-1.5,0 -2.95,0.25 -4.15,0.9c-1.2,0.599 -2.35,1.598 -3.15,3.097l0,-3.647l-7.994,0l0,22.344Z" style="fill:#1a1a1a;fill-rule:nonzero;"/><path d="M1632.65,1003.35c0,-2.496 -0.4,-6.399 -3.547,-9.398c-2.648,-2.497 -5.998,-3.047 -8.6,-3.047c-4.403,0 -7.301,1.449 -9.15,3.246c-1.948,1.898 -3.347,4.904 -3.347,8.65c0,4.254 1.849,7.002 3.298,8.451c2.747,2.748 6.297,3.397 9.249,3.397c4.853,0 7.451,-1.499 9.099,-3.097c1.649,-1.599 2.348,-3.348 2.698,-4.597l-7.644,0c-0.351,0.7 -0.901,1.199 -1.401,1.499c-1.001,0.55 -2.402,0.6 -2.602,0.6c-1.801,0 -2.802,-0.6 -3.302,-1.099c-0.951,-0.95 -1.401,-2.553 -1.401,-3.756l16.65,0l0,-0.849Zm-16.4,-3.745c0.15,-1.001 0.65,-1.803 1.201,-2.404c0.85,-0.851 1.901,-1.202 3.252,-1.202c0.801,0 2.252,0.15 3.302,1.202c0.601,0.601 1.101,1.553 1.301,2.404l-9.056,0Z" style="fill:#1a1a1a;fill-rule:nonzero;"/></g></g></svg>